<?xml version="1.0" encoding="utf-8"?>
<!-- Generator: Adobe Illustrator 16.0.4, SVG Export Plug-In . SVG Version: 6.00 Build 0)  -->
<!DOCTYPE svg PUBLIC "-//W3C//DTD SVG 1.1//EN" "http://www.w3.org/Graphics/SVG/1.1/DTD/svg11.dtd">
<svg version="1.1" id="Layer_1" xmlns="http://www.w3.org/2000/svg" xmlns:xlink="http://www.w3.org/1999/xlink" x="0px" y="0px"
	 width="595.28px" height="595.28px" viewBox="0 0 595.28 595.28" enable-background="new 0 0 595.28 595.28" xml:space="preserve">
<path fill="#FEBC11" d="M551,464.794C551,511.852,512.852,550,465.794,550H127.207C80.148,550,42,511.852,42,464.794V126.207
	C42,79.148,80.148,41,127.207,41h338.587C512.852,41,551,79.148,551,126.207V464.794z"/>
<path d="M236.482,485.104c-82.32,0-111.918-43.477-111.918-105.453c0-61.978,29.598-105.447,111.918-105.447h119.328
	c82.332,0,111.934,43.469,111.934,105.447c0,61.977-29.602,105.453-111.934,105.453H236.482z M364.14,426.555
	c36.991,0,47.169-21.459,47.169-46.903c0-25.437-10.178-46.908-47.169-46.908H228.165c-37.002,0-47.176,21.472-47.176,46.908
	c0,25.444,10.174,46.903,47.176,46.903H364.14z"/>
<g>
	<path d="M464.238,476.754v2.854h-5.512V494h-3.426v-14.393h-5.447v-2.854H464.238z M482.884,494l-0.638-10.143
		c-0.063-1.332-0.063-2.98-0.129-4.823h-0.187c-0.444,1.526-1.018,3.555-1.462,5.14l-3.104,9.567h-3.548l-3.106-9.826
		c-0.322-1.262-0.825-3.354-1.211-4.881h-0.187c0,1.592-0.065,3.232-0.129,4.823L468.553,494h-3.297l1.27-17.246h5.135l2.982,8.431
		c0.444,1.333,0.695,2.601,1.14,4.371h0.063c0.444-1.521,0.825-3.038,1.204-4.243l2.981-8.559h4.939L486.304,494H482.884z"/>
</g>
<path d="M175.844,116.999c6.407,0,11.797,1.112,16.167,3.335c4.369,2.226,7.892,5.139,10.574,8.744
	c2.679,3.606,4.602,7.725,5.768,12.351c1.164,4.628,1.748,9.347,1.748,14.153c0,6.612-0.961,12.381-2.884,17.309
	c-1.922,4.93-4.604,8.955-8.04,12.08c-3.438,3.127-7.603,5.47-12.496,7.031c-4.894,1.563-10.312,2.343-16.254,2.343h-13.458v51.384
	H131.8v-128.73H175.844z M168.154,175.233c5.008,0,9.058-1.561,12.146-4.688c3.086-3.125,4.632-7.993,4.632-14.604
	c0-6.491-1.341-11.418-4.02-14.784c-2.682-3.363-7.166-5.048-13.458-5.048h-10.486v39.124H168.154z"/>
<path d="M264.455,116.999l33.033,128.73h-26.216l-5.768-27.225h-33.208l-5.768,27.225h-26.216l33.033-128.73H264.455z
	 M261.134,197.229l-12.06-57.875h-0.35l-12.059,57.875H261.134z"/>
<path d="M325.326,206.785c0,3.245,0.201,6.22,0.61,8.924c0.407,2.705,1.164,5.049,2.274,7.032c1.104,1.983,2.621,3.546,4.543,4.688
	c1.923,1.144,4.34,1.712,7.253,1.712c3.028,0,5.476-0.568,7.342-1.712c1.862-1.142,3.348-2.705,4.456-4.688
	c1.106-1.983,1.862-4.327,2.272-7.032c0.407-2.704,0.61-5.679,0.61-8.924v-89.787h25.169v89.787c0,8.174-1.109,14.936-3.321,20.283
	c-2.215,5.35-5.187,9.587-8.913,12.711c-3.73,3.127-7.982,5.228-12.759,6.31c-4.779,1.082-9.73,1.623-14.856,1.623
	c-5.129,0-10.079-0.481-14.855-1.442c-4.779-0.961-9.031-2.913-12.759-5.86c-3.73-2.944-6.701-7.122-8.914-12.53
	c-2.214-5.409-3.32-12.441-3.32-21.094v-89.787h25.168V206.785z"/>
<path d="M393.264,116.999h25.169v107.455H463v21.275h-69.736V116.999z"/>
</svg>
